<svg id="ic_copyright_24px" xmlns="http://www.w3.org/2000/svg" width="14" height="14" viewBox="0 0 14 14">
  <path id="Path_14" data-name="Path 14" d="M7.656,8.2a1.79,1.79,0,0,1,.21-.609,1.224,1.224,0,0,1,.413-.434A1.242,1.242,0,0,1,8.916,7a1.269,1.269,0,0,1,.441.091,1.129,1.129,0,0,1,.364.252,1.348,1.348,0,0,1,.238.371,1.226,1.226,0,0,1,.1.448H11.31a2.506,2.506,0,0,0-.2-.9,2.1,2.1,0,0,0-.49-.707,2.286,2.286,0,0,0-.756-.462A2.7,2.7,0,0,0,8.9,5.927a2.736,2.736,0,0,0-1.19.238,2.407,2.407,0,0,0-.84.644,2.631,2.631,0,0,0-.5.952A4.1,4.1,0,0,0,6.2,8.909V9.1a4.1,4.1,0,0,0,.161,1.148,2.545,2.545,0,0,0,.5.945,2.39,2.39,0,0,0,.84.637,2.841,2.841,0,0,0,1.19.238,2.67,2.67,0,0,0,.924-.161,2.388,2.388,0,0,0,.756-.441,2.137,2.137,0,0,0,.518-.658,1.884,1.884,0,0,0,.21-.8H10.043a1,1,0,0,1-.1.406,1.03,1.03,0,0,1-.252.322,1.1,1.1,0,0,1-.364.21,1.39,1.39,0,0,1-.42.07,1.189,1.189,0,0,1-.623-.161,1.224,1.224,0,0,1-.413-.434,1.829,1.829,0,0,1-.21-.616A4.718,4.718,0,0,1,7.6,9.1V8.909A4.664,4.664,0,0,1,7.656,8.2ZM9,2a7,7,0,1,0,7,7A7,7,0,0,0,9,2ZM9,14.6A5.6,5.6,0,1,1,14.6,9,5.607,5.607,0,0,1,9,14.6Z" transform="translate(-2 -2)" fill="#cbd5e0"/>
</svg>
